<?xml version="1.0" encoding="UTF-8"?>
<svg id="Layer_1" data-name="Layer 1" xmlns="http://www.w3.org/2000/svg" viewBox="0 0 400 400">
  <defs>
    <style>
      .cls-1, .cls-2, .cls-3 {
        fill: #fff;
      }

      .cls-2, .cls-3 {
        font-family: SamarkanNormal, Samarkan;
        font-size: 50.9px;
      }

      .cls-3 {
        stroke: #000;
        stroke-miterlimit: 10;
      }
    </style>
  </defs>
  <text/>
  <g>
    <g>
      <text class="cls-3" transform="translate(90.27 282.3) scale(.95 1)"><tspan x="0" y="0">COLOSSEUM</tspan></text>
      <text class="cls-2" transform="translate(90.27 282.3) scale(.95 1)"><tspan x="0" y="0">COLOSSEUM</tspan></text>
    </g>
    <path class="cls-1" d="m149.03,65.4c-6.11,2.42-17.61,8.6-23.06,12.31-5.35,3.71-14.41,11.84-19.29,17.32-3.41,3.89-8.86,12.78-9.77,16.08-.51,1.71-.41,2.3.76,4.54l1.27,2.59-1.32,3.18-1.37,3.12.81,6.54c1.12,8.31,1.07,10.01-.2,13.25-1.43,3.71-1.78,9.07-.76,12.31.46,1.41.81,4.36.81,6.54,0,3.36-.25,4.59-1.58,7.42-1.68,3.71-1.68,3.77-.46,11.6.36,2.3.46,5.77.25,8.25-.46,6.77-.46,10.54.15,13.37.31,1.47.56,5.48.61,8.95v6.36h-3.16c-4.58,0-5.5,1-1.37,1.41,1.78.18,21.69,1.53,44.24,3,22.55,1.47,44.65,2.89,49.13,3.24,4.48.29,14.56,1,22.4,1.47,7.84.47,19.55,1.18,25.96,1.59,13.39.82,19.6.82,24.84-.06,2.04-.35,6.77-.88,10.54-1.24,6.47-.59,9.52-.94,25.1-3.3,13.03-1.94,17.67-3.12,17.67-4.54,0-.29-.76-.35-1.83-.18l-1.78.41.25-8.72c.1-4.77.2-9.13.25-9.6.1-4.71-.56-26.92-.97-31.51-.66-7.72-1.17-9.6-3.36-12.55-5.96-8.07-33.04-16.26-65.26-19.85-11.1-1.24-14.1-1.18-15.37.29-.61.71-1.02,1.94-1.02,3.18,0,3.65-.61,3.89-9.98,4.01-4.58.06-9.16.12-10.13.12-1.78.06-1.88-.06-3.56-4.3-.92-2.42-1.99-4.54-2.39-4.77-.36-.24-2.04-.24-3.72.06-1.68.24-3.97.47-5.09.47l-2.09.06-1.83-6.07c-1.02-3.3-2.24-7.36-2.75-8.95-.61-2.12-.97-5.65-1.17-12.49-.31-9.48-.31-9.54-1.78-11.31-1.07-1.3-2.04-1.83-3.51-1.94l-2.09-.18-3.97-11.49c-3.46-10.13-4.17-11.72-6.01-13.55-1.12-1.18-2.04-2.59-2.04-3.18s-.81-2-1.83-3.06c-2.24-2.47-3.56-2.53-9.16-.24Zm7.23,1.41c.92.82.81.94-1.43,2.06-1.27.65-3.11,1.41-4.07,1.71-4.73,1.65-16.04,6.77-20.21,9.25-2.6,1.47-6.82,4.36-9.42,6.36-6.11,4.83-16.09,16.32-19.35,22.38-1.63,3-2.65,4.42-3,4.01-1.58-1.83,6.77-14.67,14.92-22.91,7.38-7.48,15.48-13.08,27.34-18.73,10.28-4.95,13.24-5.77,15.22-4.12Zm2.55,3.65c-.25,1.18.1,1.71,2.19,3.48,1.53,1.3,2.65,2.71,2.85,3.71.15.88,1.68,5.36,3.36,10.01,1.63,4.59,3,8.6,3,8.89,0,.24-2.44,1.18-5.45,2.12-7.59,2.24-27.54,9.84-33.5,12.72-12.37,5.89-21.23,12.37-28.36,20.62-2.19,2.53-3.97,4.42-3.97,4.18s-.25-2.89-.51-5.89c-.51-5.42-.51-5.48.97-8.66,1.32-2.83,1.43-3.48.97-5.24-.71-2.59-.05-3.95,6.82-13.78,5.45-7.66,7.48-9.84,14.66-15.43,6.16-4.77,11.1-7.6,22.15-12.55,14.97-6.77,15.37-6.89,14.81-4.18Zm15.48,31.4v2.83l-4.28.35c-18.84,1.71-50.65,14.61-63.43,25.68-1.83,1.59-3.41,2.77-3.56,2.59-.41-.53,5.65-6.54,9.98-9.95,7.89-6.07,18.99-11.43,37.62-18.14,10.18-3.65,18.84-6.13,21.79-6.18l1.88-.06v2.89Zm2.95-.41c.66.77.87,4.01.2,4.01-.87,0-1.63-1.47-1.63-3.06,0-1.77.46-2.06,1.43-.94Zm-2.95,8.07v2.83l-3.36.41c-13.08,1.53-32.99,7.36-45.46,13.31-8.04,3.83-10.59,5.36-15.83,9.42-4.79,3.71-8.04,7.42-11,12.61-2.24,3.89-2.7,3.59-1.53-1.06.87-3.3,3.77-8.36,7.28-12.49,2.44-2.89,12.01-9.42,19.45-13.25,14-7.25,37.21-14.43,47.04-14.61l3.41-.06v2.89Zm3.56.88c0,2.89-.36,3.59-1.37,2.65-.66-.65-.92-4.71-.36-5.42.81-.94,1.73.47,1.73,2.77Zm-1.32,5.12c.71,1,1.32,2.47,1.32,3.3,0,.88.31,2,.71,2.47,1.22,1.59,5.45,16.55,4.73,16.85-.61.18-11.2,1.47-12.37,1.47-.41,0-.71-2.71-.97-7.95-.31-6.77-.51-8.25-1.48-9.9-1.58-2.65-4.33-3.42-6.82-1.88-3.72,2.36-4.63,5.83-4.17,15.49.15,3.36.05,5.71-.25,6.01-.25.24-1.43.59-2.55.71l-2.04.18-.25-8.01c-.36-9.66-.92-11.13-4.02-11.13-1.37,0-2.49.47-3.51,1.47-2.34,2.3-3.26,5.6-3.56,13.25-.15,4.01-.46,6.95-.81,7.19-.31.24-1.17.47-1.93.47h-1.43l.1-6.95c.1-8.36-.46-10.31-3.11-10.6-1.07-.12-2.04.18-2.7.88-2.09,2.18-2.6,4.36-2.9,12.08-.15,4.06-.41,7.54-.56,7.72-.15.12-.76.41-1.32.65-1.07.35-1.07.18-1.32-6.83-.31-9.72-1.37-11.66-4.63-8.72-1.83,1.65-2.39,4.48-2.39,11.9,0,5.65-.1,6.36-.97,6.95-.56.29-1.12.59-1.22.59s-.36-3.24-.51-7.19c-.41-7.78-1.02-9.6-2.8-8.36-1.93,1.35-2.65,4.36-2.65,11.19,0,4.77-.2,6.77-.66,7.25-.41.35-.87.47-1.02.24-.2-.18-.36-3.18-.36-6.6,0-6.6-.31-8.01-1.68-7.36-1.22.53-1.53,2.12-1.83,9.9-.2,4.83-.51,7.13-.92,7.3-.51.18-.66-1.24-.66-5.71,0-3.24-.2-6.01-.46-6.18-.87-.65-1.58,3.42-1.58,9.13,0,3.48-.2,5.83-.51,5.83s-.51-2.18-.51-5.3-.2-5.3-.51-5.3-.51,2.65-.51,6.77c0,4.48-.2,6.77-.56,6.77s-.51-2.3-.36-7.25l.15-7.25,2.39-3.89c4.73-7.6,10.44-12.37,22.15-18.38,9.52-4.95,20.62-8.72,32.73-11.25,8.96-1.83,18.38-3.65,19.19-3.77.31-.06,1.17.77,1.88,1.77Zm-8.65,9.13c1.07,1.24,1.27,2.47,1.43,9.25.15,6.48.46,6.13-4.43,6.42l-3.05.18-.15-4.12c-.25-6.07.25-8.78,1.93-10.9,1.58-1.94,3.05-2.24,4.28-.82Zm-16.49,10.78v7.54l-1.88.35c-1.02.24-2.04.24-2.29.06-.61-.47-.51-10.37.15-12.55.56-1.77,2.8-3.77,3.61-3.18.25.12.41,3.65.41,7.78Zm-14.76,3.53c0,7.13-.15,7.72-2.09,7.72-.81,0-.51-9.78.36-12.37.46-1.3,1.02-2.36,1.27-2.36s.46,3.18.46,7.01Zm58.44,1.35l.15,2.12-2.7.35c-1.48.18-6.72.59-11.61.88-29.73,2.06-63.18,10.19-75.8,18.38-1.48,1-2.8,1.65-2.95,1.53-.41-.47,6.21-5.65,9.06-7.13,4.73-2.42,15.27-6.13,24.23-8.54,8.71-2.36,24.54-5.18,45.46-8.01,6.31-.88,11.56-1.71,11.71-1.83.1-.18.66-.24,1.27-.12.76.12,1.07.71,1.17,2.36Zm-70.25,5.89c-.1,2.24-.41,3.71-.76,3.89-.51.18-.66-.88-.66-4.12,0-2.36.15-4.95.36-5.77q.36-1.41.76.47c.25,1.06.41,3.59.31,5.54Zm122.23-5.12c25.71,3.77,44.34,9.31,52.74,15.67,5.5,4.12,5.91,5.3,6.47,17.91.76,17.32.92,24.86.76,37.99-.1,8.36-.1,8.54-1.22,8.72-1.17.18-1.17.06-1.17-5.89,0-3.36-.2-6.48-.51-6.95-.81-1.53-1.53,2.06-1.53,7.95,0,8.6-.97,7.48-1.12-1.3-.15-6.24-.31-7.54-.92-7.54s-.87,1.47-1.22,7.48c-.25,4.18-.61,7.54-.87,7.54s-.46-3-.46-6.71c0-7.13-.51-9.78-1.78-9.78s-1.93,2.95-1.99,10.01c-.05,5.71-.15,6.77-.87,6.95s-.87-.82-1.07-7.36c-.25-7.6-.81-10.19-2.24-10.19-1.27,0-1.73,2.77-1.73,10.66,0,7.01-.1,7.66-.87,7.48-.81-.18-.97-1.18-1.17-8.25-.2-6.83-.41-8.19-1.22-9.25-1.43-1.77-2.95-1.35-3.97,1.12-.71,1.65-.92,3.59-.92,9.54,0,7.13-.05,7.54-1.02,7.54s-1.02-.41-1.02-7.36c0-5.01-.25-8.01-.71-9.37-1.43-3.95-4.99-5.12-6.87-2.36-.97,1.41-1.07,2.36-1.07,10.07q0,8.48-1.12,8.31c-1.12-.18-1.17-.41-1.43-9.19-.25-8.66-.31-9.13-1.48-10.19-1.53-1.41-3.87-1.41-5.09,0-.97,1.12-1.37,2.89-1.68,6.83-.1,1.41-.46.65-1.68-3.53-1.48-5.24-1.53-5.48-1.37-16.2.15-12.96-.36-18.38-1.99-20.38-1.32-1.65-3.72-1.88-5.4-.53-1.48,1.24-2.7,5.71-2.7,10.13,0,2.36-.2,3.65-.51,3.42-.25-.18-.51-2.59-.51-5.3,0-6.07-.51-7.78-2.75-8.84-2.75-1.35-4.02-5.42-4.38-14.25-.2-5.36-.46-7.42-1.02-8.13-.61-.65-2.19-.94-6.62-1.06l-5.85-.12-.15-2c-.1-1.12-.05-2.65.15-3.48l.31-1.47,8.25.35c4.53.18,11.1.77,14.56,1.3Zm-48.01,4.54c.76,1.65.92,3.42.36,3.42-1.02-.06-1.58-1.06-1.83-3.24-.15-1.3-.41-3.18-.56-4.12q-.31-1.71.51.29c.46,1.12,1.17,2.77,1.53,3.65Zm-2.85,1v1.65l-7.48.41c-28.92,1.59-58.9,7.42-77.89,15.14-8.2,3.36-12.32,6.48-14.2,10.72-1.27,2.83-1.43,1.3-.15-1.71,1.37-3.42,4.12-6.54,7.43-8.6,12.22-7.72,36.86-14.61,62.67-17.55,14.41-1.59,13.69-1.53,22.15-1.65l7.48-.12v1.71Zm25.45,1.24c11.56.53,13.59.77,14.15,1.59.66,1.06.81,5.95.2,7.01-.25.47-5.35.65-17.77.59l-17.36-.06-.31-1.71c-.41-2.3-.41-7.13.05-7.6.46-.59,5.24-.53,21.03.18Zm-25.45,6.3c0,2.95.51,4.65,3.36,11.96,5.35,13.61,4.94,12.37,4.02,12.72-.41.18-3.67.12-7.23-.12l-6.52-.53-.25-8.54c-.2-6.13-.46-8.89-1.02-9.84-2.65-4.65-9.32-3.89-11.86,1.3-.31.65-.71,5.01-.87,9.72l-.25,8.54-3.16.18-3.21.18v-8.01c0-11.07-1.17-13.84-5.91-13.84-1.73,0-2.49.35-3.67,1.71-1.88,2.24-2.55,5.3-2.95,13.84l-.36,6.83h-2.24c-2.04,0-2.19-.12-2.24-1.65,0-.88-.2-4.77-.41-8.6-.36-6.3-.56-7.19-1.58-8.13-1.73-1.65-5.14-1.41-6.72.41-1.68,1.94-1.93,3.59-1.93,12.37q0,7.95-3.31,7.95h-1.68l-.2-8.6c-.15-8.19-.2-8.66-1.37-9.72-1.58-1.53-3.72-1.41-5.04.18-1.48,1.88-2.09,5.65-2.14,12.96,0,5.12-.15,6.36-.71,6.36-.41,0-1.07.18-1.48.35-.61.24-.76-.88-.97-6.95-.25-7.54-.87-10.19-2.55-10.78-3.11-1.18-4.48,2.12-4.84,11.55-.25,5.3-.46,7.01-1.02,7.3-1.43.59-1.68-.41-1.68-7.36,0-5.54-.15-7.19-.81-7.89-1.07-1.24-1.32-1.18-2.8.59-1.12,1.41-1.22,2-1.37,8.84-.15,6.6-.25,7.3-1.12,7.3-.81,0-.97-.65-1.12-6.36-.15-7.13-.87-9.25-2.39-7.48-.66.77-.81,2.12-.71,7.19.15,5.95-.2,7.83-1.43,7.83-.25,0-.46-2.71-.46-6.07s-.2-6.36-.46-6.83c-.92-1.65-1.58,1.59-1.58,7.83s-.05,6.24-1.32,7.19c-1.83,1.41-2.24.47-2.24-5.36,0-8.89,1.68-12.31,7.99-16.08,5.04-2.95,8.15-4.12,21.03-7.78,19.55-5.54,46.63-9.66,65.06-9.95l5.7-.06v3.36Zm3.05.24c0,2.18-.2,2.89-.76,2.89s-.76-.71-.76-2.83c0-1.59.15-3.06.31-3.24.76-.82,1.22.41,1.22,3.18Zm36.2,4.06c.2,0,.46,1.12.61,2.47.25,2.77,4.38,16.91,6.01,20.56l.97,2.3h-5.04c-3.41,0-5.19-.24-5.55-.77-.25-.35-.61-3.77-.71-7.48-.2-7.36-.76-9.42-3.05-11.37-1.93-1.71-6.26-1.94-8.55-.59-3.05,1.83-4.07,4.3-4.07,9.95v4.95h-3.46l-.2-5.48c-.2-5.95-.97-8.07-3.51-9.6-1.93-1.12-3.92-1.06-6.16.35l-1.88,1.18-1.07-2.77c-.56-1.47-.92-2.83-.81-2.95.71-.82,26.83-1.35,36.5-.77Zm-47.45,3.3c.97,1.41,1.07,2.36,1.07,9.07v7.48l-1.88.41c-1.07.18-3.26.35-4.84.35h-2.95v-14.84l1.73-2c2.29-2.65,5.24-2.83,6.87-.47Zm-19.8,1.18c.31.82.51,4.89.51,9.07v7.6l-2.75.35c-4.68.71-4.63.77-4.48-5.3.15-6.6.81-9.42,2.65-11.6,1.83-2.06,3.41-2.18,4.07-.12Zm-17.56,7.42c.2,3.36.25,7.01.15,8.13-.15,1.94-.25,2.06-2.24,2.24l-2.14.18-.36-4.48c-.2-2.42-.2-5.54,0-6.95.41-2.71,1.99-5.12,3.36-5.12.76,0,.92.88,1.22,6.01Zm-15.32-.94c.15.53.31,3.65.31,7.01,0,5.07-.15,6.13-.81,6.42-.46.24-.97.24-1.12.12-.41-.53-.36-12.96.05-13.78.56-1,1.22-.88,1.58.24Zm73.61,2.89c.36.47.76,2.06.92,3.53l.25,2.65h-4.73v-2.42c0-1.3.25-2.89.51-3.53.66-1.35,2.19-1.47,3.05-.24Zm14.92-.24c1.78.94,2.39,2.89,2.39,7.66v4.12l-3.41-.18-3.46-.18-.15-2.53c-.1-1.65-.41-2.47-.92-2.47-1.17,0-.92-4.48.31-5.89,1.12-1.3,3.36-1.53,5.24-.53Zm17.56.06c.36.41.61,1.77.56,3.06l-.05,2.42-.66-1.77c-1.48-4.06-1.43-5.54.15-3.71Zm-117.5,6.42c0,3.18-.2,5.83-.46,5.83-.61,0-1.12-6.18-.76-9.48.56-4.71,1.22-2.65,1.22,3.65Zm126.1-4.89c1.02.77,1.68,3.59,1.68,7.25v3.48h-2.49c-2.44,0-2.49-.06-2.8-2-.41-2.53.36-6.54,1.53-8.07.97-1.24,1.17-1.3,2.09-.65Zm-31.92,9.72v3.12l-22.5-.24c-12.88-.18-27.8.06-34.77.41-26.98,1.47-57.78,4.65-61.55,6.3-1.73.77-.71-1,1.27-2.18,3.51-2.06,12.27-3.95,25.4-5.54,32.43-3.89,46.28-4.83,71.93-4.95l20.21-.06v3.12Zm35.53,2.47c.41.18.61,1.59.61,4.36v4.06l-2.39.24c-1.37.12-9.16.12-17.31,0l-14.92-.29v-4.3c0-3.95.1-4.3,1.17-4.54,1.27-.35,31.82.12,32.84.47Zm-35.53,3.48c0,1.12-.36,1.53-1.37,1.77-.81.18-15.27.47-32.23.65-30.6.35-46.28.94-56.51,2.06-2.95.35-7.99.88-11.2,1.18-7.64.77-14.66,2.12-18.23,3.48-1.58.65-2.95,1.06-3.05.94-.56-.65,1.27-2.83,3.36-4.06,3.16-1.83,14.36-3.77,27.85-4.77,2.55-.18,8.81-.71,14-1.18,12.78-1.18,13.39-1.24,47.5-1.35l29.88-.12v1.41Zm.25,8.13l-.31,4.3,4.58,10.01c2.49,5.48,4.73,10.78,4.89,11.66l.36,1.65-7.79-.41c-4.33-.24-7.89-.47-7.99-.53-.05-.06-.2-4.77-.25-10.37-.15-11.19-.46-12.66-3.26-15.26-1.99-1.83-6.67-1.47-8.6.65-2.65,2.83-2.95,4.24-3.16,14.78l-.2,9.9h-6.41l-.2-9.9c-.2-10.78-.76-13.25-3.56-15.61-3-2.53-7.99-.82-9.83,3.42-.81,2-1.02,3.95-1.17,11.9l-.2,9.6h-6.01v-9.42c0-7.3-.2-9.95-.81-11.78-1.37-4.01-5.35-5.36-8.76-2.95-2.7,1.88-3.16,4.01-3.16,14.43s0,10.19-3.31,9.48l-1.78-.41v-9.37c0-5.18-.25-10.07-.56-11.01-1.93-5.95-7.08-5.65-8.6.47-.31,1.12-.51,5.89-.51,10.66s-.15,8.78-.36,8.89c-.25.12-1.37.12-2.55-.06l-2.09-.24-.2-9.72-.15-9.72-1.68-1.71c-1.99-2.06-4.12-2.24-5.55-.41-1.58,2.12-1.73,3.12-1.73,12.37l.05,8.72h-3.56v-8.72c0-7.07-.15-9.01-.92-10.72-.76-1.77-1.12-2.06-2.6-1.94-.97.06-2.19.59-2.8,1.3-.97,1.18-1.07,2-1.22,10.37-.15,8.54-.25,9.13-1.17,9.13s-.97-.47-.97-8.13c0-8.25-.41-10.25-2.14-11.55-.71-.47-1.12-.35-2.04.71-1.07,1.24-1.17,1.94-1.32,9.84-.2,7.95-.25,8.54-1.17,8.54s-.97-.53-.97-8.19c0-8.66-.2-10.07-1.32-10.07s-1.73,4.01-1.73,11.01c0,5.3-.15,6.66-.71,6.66-1.12,0-1.32-1.41-1.32-9.54,0-5.83-.15-7.6-.61-7.42s-.71,2.65-.92,8.48l-.25,8.19h-2.55l-.41-8.72c-.31-6.01-.25-9.01.15-9.54,1.78-2.47,20.16-5.24,43.78-6.54,6.62-.41,46.17-1.18,65.32-1.3l12.63-.12-.31,4.24Zm35.28-1.18c.36.41.61,1.59.61,2.71,0,2.18,3.41,16.14,5.45,22.44,1.32,4.12,1.17,4.77-1.43,4.77-.71,0-3,.18-5.09.35l-3.77.35-.05-10.48c0-7.25-.2-10.96-.66-11.9-1.58-3.42-6.36-4.71-8.91-2.42-2.55,2.3-2.85,3.83-2.85,14.08s.2,9.9-3.51,9.07l-1.58-.41v-8.89c0-9.78-.56-12.13-3.26-15.08-1.12-1.18-2.04-1.47-4.89-1.65-3-.24-3.51-.41-3.77-1.47-.15-.65-.15-1.41,0-1.71.46-.82,32.99-.59,33.7.24Zm-87.36,4.06c1.93,1.18,2.44,4.01,2.44,13.78v9.13h-3.26c-1.83,0-3.46-.29-3.67-.65-.15-.35-.36-4.65-.36-9.6,0-7.07.15-9.31.81-10.78,1.12-2.47,2.24-3,4.02-1.88Zm20.67,1.24c1.68,2.12,1.99,3.77,2.39,13.25l.36,9.01h-2.44c-1.37,0-3.72-.18-5.14-.35l-2.7-.41v-8.07c0-4.48.15-8.89.31-9.95.76-4.36,4.89-6.3,7.23-3.48Zm22.71,1.83c1.27,2,1.63,5.3,1.43,14.08l-.15,6.95h-9.62v-8.19c0-8.84.36-10.66,2.44-13.19,1.78-2.18,4.38-2.06,5.91.35Zm-60.12-.29c.66.82.92,3.06,1.17,10.31l.36,9.25h-5.85l.2-9.01c.2-9.31.66-11.6,2.39-11.6.51,0,1.27.47,1.73,1.06Zm76.41.41c.71.59,1.12,1.94,1.37,4.3.56,4.95.51,10.72-.05,10.72s-6.62-13.78-6.62-15.08c0-1.12,3.97-1.06,5.29.06Zm17.05-.29c1.83,1.12,2.6,4.83,2.6,12.84,0,10.19,0,10.13-3.26,10.07-4.23-.06-4.12.29-4.33-9.42-.2-9.37.36-12.08,2.65-13.37,1.43-.82,1.27-.82,2.34-.12Zm-107.82,1c.56.71.71,2.95.61,9.19-.05,4.48-.15,8.25-.25,8.36-.1.06-.92,0-1.83-.12l-1.73-.35.2-7.42c.31-9.37,1.17-12.25,3-9.66Zm127.73,1.88c.25.65.51,4.54.51,8.6,0,7.36,0,7.42-1.12,7.25-.92-.12-1.37-.88-2.04-3.12-1.12-3.83-1.22-10.78-.1-12.55.97-1.59,2.04-1.65,2.75-.18Zm-139.59,7.54c-.1,5.3-.36,7.54-.76,7.72-.76.24-.87-3.42-.36-10.66.56-7.19,1.27-5.24,1.12,2.95Zm149.82-6.48c.51.65.76,3.24.87,8.72l.15,7.83-1.68.29c-.92.12-1.83.18-2.04,0-.71-.41-.46-16.38.2-17.14.87-1,1.68-.88,2.49.29Zm9.11,9.37c0,4.71-.15,6.18-.61,6.01-.81-.29-1.12-5.36-.66-9.78.56-5.07,1.27-2.89,1.27,3.77Z"/>
  </g>
  <path class="cls-1" d="m132.94,94.67l-1.93.94v9.07l2.34-.59c1.32-.35,2.14-.77,1.78-.88-.71-.29-.76-4.83-.05-4.83.31,0,.51-1.06.51-2.36q0-2.59-2.65-1.35Z"/>
  <path class="cls-1" d="m113.09,108.63c-.71.59-.92,1.65-.92,4.42,0,3.77.31,4.3,1.68,2.53.87-1.12,1.07-4.01.46-6.42-.31-1.12-.46-1.18-1.22-.53Z"/>
  <path class="cls-1" d="m102.6,121.48c-.41.59-.51,1.83-.31,3.65.46,3.71,1.32,2.59,1.12-1.41-.1-2.59-.25-3-.81-2.24Z"/>
  <path class="cls-1" d="m247.9,146.16c-.15,1-.31,2.77-.31,3.83,0,2,.05,2,2.29,2h2.29v-7.66h-1.99c-1.78,0-1.99.18-2.29,1.83Zm2.75,2.59c0,2.42-.1,2.65-1.27,2.65s-1.27-.24-1.27-2.24c0-2.53.25-3.06,1.63-3.06.76,0,.92.47.92,2.65Z"/>
  <path class="cls-1" d="m271.26,150.52c-.46,4.24-.2,5.01,2.04,5.01h1.78v-3.77c0-3.42-.1-3.77-1.12-4.12-2.14-.65-2.34-.41-2.7,2.89Zm1.78.53c0,1.83-.51,3.3-1.07,3.3-.51,0-.61-3.71-.1-4.3.66-.82,1.17-.35,1.17,1Z"/>
  <path class="cls-1" d="m288.42,158.88c.15,4.48.2,4.59,1.43,4.59s1.27-.12,1.27-4.42,0-4.42-1.43-4.59l-1.43-.18.15,4.59Z"/>
  <path class="cls-1" d="m299.52,161.71c0,2.47.15,3.24.76,3.24.56,0,.76-.71.76-2.89,0-2-.2-3-.76-3.24-.61-.24-.76.29-.76,2.89Z"/>
  <path class="cls-1" d="m261.03,159.65c-1.22.53-2.04,2.65-2.49,6.42-.46,3.18,0,3.59,4.12,3.59,3.51,0,3.77-.35,3.77-4.83,0-3.59-2.9-6.36-5.4-5.18Zm.71,5.54c.2,3-.1,3.89-1.37,3.48-1.78-.53-1.37-6.3.41-5.95.56.12.87.94.97,2.47Z"/>
  <path class="cls-1" d="m295.04,169.19c-.36.41-.61,2.24-.61,4.06,0,2.95.15,3.36,1.17,3.71,2.29.71,2.39.53,2.39-3.36,0-3.53-.56-5.12-1.78-5.12-.31,0-.81.29-1.17.71Z"/>
  <path class="cls-1" d="m260.06,172.6c-.81,1-1.02,2.77-1.37,10.13-.36,7.07-.31,9.01.2,9.42.36.24,2.19.47,4.07.47,4.23,0,4.12.35,3.87-11.19-.15-7.48-.25-8.42-1.12-9.19-1.53-1.24-4.53-1.06-5.65.35Zm2.6,4.42c.46,1.35.71,4.12.71,8.25v6.18h-1.78c-2.29,0-2.55-1.12-2.09-8.72.51-7.83,1.63-9.9,3.16-5.71Z"/>
  <path class="cls-1" d="m271.21,172.49c-1.43,1.06-1.73,3.3-1.73,12.13,0,10.48-.2,10.01,4.89,9.66l2.49-.18.15-9.31.15-9.31-1.53-1.77c-1.43-1.65-3.26-2.18-4.43-1.24Zm1.32,5.77c.31.82.51,4.42.51,7.95,0,6.36,0,6.42-1.22,6.42s-1.17-.18-1.53-6.95c-.2-3.83-.2-7.42,0-7.95.46-1.47,1.68-1.24,2.24.53Z"/>
  <path class="cls-1" d="m280.48,175.67c-.66,1.06-.81,3-.81,8.84v7.54h5.6v-7.13c0-6.77-.41-9.07-1.73-10.07-1.02-.82-2.29-.47-3.05.82Zm.97,2.95c.1.41.25,3.48.41,6.77.2,5.6.15,6.07-.76,6.07-.81,0-.92-.59-.92-6.77,0-4.24.2-6.77.51-6.77s.61.35.76.71Z"/>
  <path class="cls-1" d="m289.08,176.96c-1.02.82-1.68,5.71-1.73,11.96l-.05,3.12h2.49c1.78,0,2.6-.24,2.8-.94.51-1.47.36-10.6-.2-12.25-.66-2.06-2.14-2.89-3.31-1.88Zm.2,9.54c.05,3-.15,4.95-.46,4.95s-.51-2.3-.51-5.77c0-6.95.81-6.3.97.82Z"/>
  <path class="cls-1" d="m295.04,180.08c-.25.59-.56,4.77-.66,9.31l-.2,8.25,1.93.18,1.88.18-.05-7.25c0-7.13-.61-11.07-1.83-11.49-.31-.12-.81.24-1.07.82Z"/>
  <path class="cls-1" d="m299.72,182.15c-.36.59-.41,15.2-.05,15.55.05.06.56.24,1.12.35.92.18,1.02-.18,1.17-3.95.25-8.19-.92-14.49-2.24-11.96Z"/>
  <path class="cls-1" d="m303.33,183.27c-.51,1.53-.05,13.78.51,13.67.66-.24.97-13.14.31-13.9-.36-.41-.61-.29-.81.24Z"/>
  <path class="cls-1" d="m305.12,191.1c0,3.77.2,6.24.51,6.24s.51-2.36.51-5.83-.2-6.07-.51-6.24c-.31-.24-.51,1.88-.51,5.83Z"/>
</svg>